<svg xmlns="http://www.w3.org/2000/svg" version="1.1" xmlns:xlink="http://www.w3.org/1999/xlink" xmlns:svgjs="http://svgjs.dev/svgjs" width="1500" height="1500" viewBox="0 0 1500 1500"><rect width="1500" height="1500" fill="#ffffff"></rect><g transform="matrix(0.6666666666666666,0,0,0.6666666666666666,249.39393939393938,438.5856950067477)"><svg viewBox="0 0 396 247" data-background-color="#ffffff" preserveAspectRatio="xMidYMid meet" height="935" width="1500" xmlns="http://www.w3.org/2000/svg" xmlns:xlink="http://www.w3.org/1999/xlink"><g id="tight-bounds" transform="matrix(1,0,0,1,0.2400000000000091,-0.09999999999999432)"><svg viewBox="0 0 395.52 247.2" height="247.2" width="395.52"><g><svg></svg></g><g><svg viewBox="0 0 395.52 247.2" height="247.2" width="395.52"><g transform="matrix(1,0,0,1,75.54432,108.92303397522066)"><svg viewBox="0 0 244.43135999999998 29.353932049558665" height="29.353932049558665" width="244.43135999999998"><g><svg viewBox="0 0 244.43135999999998 29.353932049558665" height="29.353932049558665" width="244.43135999999998"><g><svg viewBox="0 0 244.43135999999998 29.353932049558665" height="29.353932049558665" width="244.43135999999998"><g><svg viewBox="0 0 244.43135999999998 29.353932049558665" height="29.353932049558665" width="244.43135999999998"><g id="textblocktransform"><svg viewBox="0 0 244.43135999999998 29.353932049558665" height="29.353932049558665" width="244.43135999999998" id="textblock"><g><svg viewBox="0 0 244.43135999999998 29.353932049558665" height="29.353932049558665" width="244.43135999999998"><g transform="matrix(1,0,0,1,0,0)"><svg width="244.43135999999998" viewBox="3.25 -35.45 301.47 36.21" height="29.353932049558665" data-palette-color="#2a2c35"><path d="M31.25-35.01L31.25 0 23.75 0 10.25-23.05 10.25 0 3.25 0 3.25-35.01 10.74-35.01 24.24-11.94 24.24-35.01 31.25-35.01ZM72.04-17.36L72.04-17.36Q72.04-14.87 71.4-12.56 70.75-10.25 69.58-8.24 68.41-6.23 66.75-4.57 65.09-2.91 63.08-1.72 61.08-0.54 58.76 0.11 56.44 0.76 53.95 0.76L53.95 0.76Q51.46 0.76 49.16 0.11 46.85-0.54 44.83-1.72 42.82-2.91 41.16-4.57 39.5-6.23 38.32-8.24 37.13-10.25 36.48-12.56 35.84-14.87 35.84-17.36L35.84-17.36Q35.84-19.85 36.48-22.17 37.13-24.49 38.32-26.49 39.5-28.49 41.16-30.15 42.82-31.81 44.83-32.98 46.85-34.16 49.16-34.8 51.46-35.45 53.95-35.45L53.95-35.45Q56.44-35.45 58.76-34.8 61.08-34.16 63.08-32.98 65.09-31.81 66.75-30.15 68.41-28.49 69.58-26.49 70.75-24.49 71.4-22.17 72.04-19.85 72.04-17.36ZM65.09-17.36L65.09-17.36Q65.09-19.65 64.21-21.69 63.33-23.73 61.83-25.23 60.32-26.73 58.29-27.61 56.25-28.49 53.95-28.49L53.95-28.49Q51.63-28.49 49.61-27.61 47.58-26.73 46.07-25.23 44.55-23.73 43.67-21.69 42.8-19.65 42.8-17.36L42.8-17.36Q42.8-15.06 43.67-13.05 44.55-11.04 46.07-9.52 47.58-8.01 49.61-7.13 51.63-6.25 53.95-6.25L53.95-6.25Q56.25-6.25 58.29-7.13 60.32-8.01 61.83-9.52 63.33-11.04 64.21-13.05 65.09-15.06 65.09-17.36ZM94.77-35.01L102.78-35.01 91.28 0 84.27 0 72.82-35.01 80.78-35.01 87.76-11.65 94.77-35.01ZM111.96-13.99L125.97-13.99 125.97-21Q125.97-22.44 125.42-23.72 124.87-25 123.92-25.95 122.97-26.9 121.68-27.45 120.4-28 118.96-28L118.96-28Q117.52-28 116.24-27.45 114.96-26.9 114.01-25.95 113.05-25 112.5-23.72 111.96-22.44 111.96-21L111.96-21 111.96-13.99ZM132.98-21L132.98 0 125.97 0 125.97-7.01 111.96-7.01 111.96 0 104.97 0 104.97-21Q104.97-23.9 106.07-26.45 107.17-29 109.06-30.91 110.95-32.81 113.51-33.91 116.06-35.01 118.96-35.01L118.96-35.01Q121.87-35.01 124.42-33.91 126.97-32.81 128.87-30.91 130.78-29 131.88-26.45 132.98-23.9 132.98-21L132.98-21ZM137-24.51L137-24.51Q137-26.68 137.83-28.59 138.66-30.49 140.09-31.92 141.52-33.35 143.42-34.18 145.33-35.01 147.5-35.01L147.5-35.01 163.56-35.01 163.56-28 147.5-28Q146.77-28 146.13-27.73 145.5-27.47 145.02-26.99 144.55-26.51 144.28-25.88 144.01-25.24 144.01-24.51L144.01-24.51Q144.01-23.78 144.28-23.13 144.55-22.49 145.02-22.01 145.5-21.53 146.13-21.26 146.77-21 147.5-21L147.5-21 154.51-21Q156.68-21 158.6-20.18 160.51-19.36 161.94-17.93 163.37-16.5 164.19-14.59 165-12.67 165-10.5L165-10.5Q165-8.33 164.19-6.42 163.37-4.52 161.94-3.09 160.51-1.66 158.6-0.83 156.68 0 154.51 0L154.51 0 138.95 0 138.95-7.01 154.51-7.01Q155.24-7.01 155.87-7.28 156.51-7.54 156.98-8.02 157.46-8.5 157.73-9.13 158-9.77 158-10.5L158-10.5Q158-11.23 157.73-11.87 157.46-12.5 156.98-12.98 156.51-13.45 155.87-13.72 155.24-13.99 154.51-13.99L154.51-13.99 147.5-13.99Q145.33-13.99 143.42-14.82 141.52-15.65 140.09-17.08 138.66-18.51 137.83-20.42 137-22.34 137-24.51ZM203.89-17.36L203.89-17.36Q203.89-14.87 203.25-12.56 202.6-10.25 201.43-8.24 200.26-6.23 198.6-4.57 196.94-2.91 194.93-1.72 192.93-0.54 190.61 0.11 188.29 0.76 185.8 0.76L185.8 0.76Q183.31 0.76 181.01 0.11 178.7-0.54 176.68-1.72 174.67-2.91 173.01-4.57 171.35-6.23 170.17-8.24 168.98-10.25 168.33-12.56 167.69-14.87 167.69-17.36L167.69-17.36Q167.69-19.85 168.33-22.17 168.98-24.49 170.17-26.49 171.35-28.49 173.01-30.15 174.67-31.81 176.68-32.98 178.7-34.16 181.01-34.8 183.31-35.45 185.8-35.45L185.8-35.45Q188.29-35.45 190.61-34.8 192.93-34.16 194.93-32.98 196.94-31.81 198.6-30.15 200.26-28.49 201.43-26.49 202.6-24.49 203.25-22.17 203.89-19.85 203.89-17.36ZM196.94-17.36L196.94-17.36Q196.94-19.65 196.06-21.69 195.18-23.73 193.68-25.23 192.18-26.73 190.14-27.61 188.1-28.49 185.8-28.49L185.8-28.49Q183.48-28.49 181.46-27.61 179.43-26.73 177.92-25.23 176.4-23.73 175.52-21.69 174.65-19.65 174.65-17.36L174.65-17.36Q174.65-15.06 175.52-13.05 176.4-11.04 177.92-9.52 179.43-8.01 181.46-7.13 183.48-6.25 185.8-6.25L185.8-6.25Q188.1-6.25 190.14-7.13 192.18-8.01 193.68-9.52 195.18-11.04 196.06-13.05 196.94-15.06 196.94-17.36ZM236.09-35.01L236.09-13.99Q236.09-11.08 234.99-8.53 233.9-5.98 231.99-4.09 230.09-2.2 227.54-1.1 224.99 0 222.08 0L222.08 0Q219.17 0 216.62-1.1 214.07-2.2 212.18-4.09 210.29-5.98 209.19-8.53 208.09-11.08 208.09-13.99L208.09-13.99 208.09-35.01 215.07-35.01 215.07-13.99Q215.07-12.55 215.62-11.28 216.17-10.01 217.12-9.06 218.08-8.11 219.36-7.56 220.64-7.01 222.08-7.01L222.08-7.01Q223.52-7.01 224.8-7.56 226.08-8.11 227.04-9.06 227.99-10.01 228.54-11.28 229.09-12.55 229.09-13.99L229.09-13.99 229.09-35.01 236.09-35.01ZM270.17-35.01L270.17 0 262.68 0 249.18-23.05 249.18 0 242.17 0 242.17-35.01 249.67-35.01 263.17-11.94 263.17-35.01 270.17-35.01ZM304.72-17.5L304.72-17.5Q304.72-15.09 304.09-12.85 303.47-10.62 302.32-8.68 301.18-6.74 299.59-5.14 298-3.54 296.05-2.39 294.1-1.25 291.86-0.62 289.63 0 287.21 0L287.21 0 276.66 0 276.66-35.01 287.21-35.01Q289.63-35.01 291.86-34.39 294.1-33.76 296.05-32.62 298-31.47 299.59-29.87 301.18-28.27 302.32-26.33 303.47-24.39 304.09-22.16 304.72-19.92 304.72-17.5ZM297.71-17.5L297.71-17.5Q297.71-19.68 296.89-21.58 296.07-23.49 294.65-24.91 293.22-26.34 291.3-27.17 289.38-28 287.21-28L287.21-28 283.72-28 283.72-7.01 287.21-7.01Q289.38-7.01 291.3-7.82 293.22-8.64 294.65-10.07 296.07-11.5 296.89-13.42 297.71-15.33 297.71-17.5Z" opacity="1" transform="matrix(1,0,0,1,0,0)" fill="#2a2c35" class="wordmark-text-0" data-fill-palette-color="primary" id="text-0"></path></svg></g></svg></g></svg></g></svg></g></svg></g></svg></g></svg></g><path d="M175.24 102.923L175.24 38.673 5.386 38.673 5.386 208.527 175.24 208.527 175.24 144.277 172.593 144.277 172.593 205.88 8.033 205.88 8.033 41.32 172.593 41.32 172.593 102.923Z" fill="#2a2c35" stroke="transparent" data-fill-palette-color="tertiary"></path></svg></g><defs></defs></svg><rect width="395.52" height="247.2" fill="none" stroke="none" visibility="hidden"></rect></g></svg></g></svg>